# xmcd
#
# Track frame offsets:
#	150
#	9868
#	21380
#	32875
#	46985
#	60233
#	73918
#	86500
#	97455
#	110498
#	120630
#	134450
#	147358
#	158473
#	169883
#	180268
#	191948
#	202093
#
# Disc length: 2923 seconds
#
# Revision: 3
# Processed by: cddbd v1.5.1PL0 Copyright (c) Steve Scherf et al.
# Submitted via: EasyCDDAExtractor 7.0.5.1
#
DISCID=010b6912
DTITLE=Willie Nelson - Nite Life - Greatest Hits and Rare Tracks (1959-1971)
DYEAR=1990
DGENRE=Country
TTITLE0=Man With The Blues
TTITLE1=What A Way To Live
TTITLE2=Nite Life
TTITLE3=Rainy Day Blues
TTITLE4=You'll Always Have Someone
TTITLE5=Everything But You
TTITLE6=Mr. Record Man
TTITLE7=Hello Walls
TTITLE8=Crazy
TTITLE9=Touch Me
TTITLE10=Funny How Time Slips Away
TTITLE11=Am I Blue
TTITLE12=Half A Man
TTITLE13=Opportunity To Cry
TTITLE14=San Antonio Rose
TTITLE15=One In A Row
TTITLE16=Bring Me Sunshine
TTITLE17=Me and Paul
EXTD=YEAR: 1990 ID3G:   2
EXTT0=
EXTT1=
EXTT2=
EXTT3=
EXTT4=
EXTT5=
EXTT6=
EXTT7=
EXTT8=
EXTT9=
EXTT10=
EXTT11=
EXTT12=
EXTT13=
EXTT14=
EXTT15=
EXTT16=
EXTT17=
PLAYORDER=
